<svg xmlns="http://www.w3.org/2000/svg" viewBox="100 0 500 450">
  <defs>
    <!-- Gradients -->
    <radialGradient id="nodeGradient" cx="50%" cy="50%" r="50%" fx="50%" fy="50%">
      <stop offset="0%" stop-color="#ffffff" />
      <stop offset="100%" stop-color="#E6F2FF" />
    </radialGradient>
    
    <linearGradient id="centralGradient" x1="0%" y1="0%" x2="100%" y2="100%">
      <stop offset="0%" stop-color="#3066BE" />
      <stop offset="100%" stop-color="#4A89DC" />
    </linearGradient>
    
    <!-- Animations -->
    <style type="text/css">
      @keyframes floatNodeX {
        0% { transform: translateX(0px); }
        50% { transform: translateX(20px); }
        100% { transform: translateX(0px); }
      }
      
      @keyframes floatNodeY {
        0% { transform: translateY(0px); }
        50% { transform: translateY(20px); }
        100% { transform: translateY(0px); }
      }
      
      @keyframes floatNodeDiagonal1 {
        0% { transform: translate(0px, 0px); }
        50% { transform: translate(15px, 15px); }
        100% { transform: translate(0px, 0px); }
      }
      
      @keyframes pulse {
        0% { transform: scale(1); opacity: 0.9; }
        50% { transform: scale(1.08); opacity: 1; }
        100% { transform: scale(1); opacity: 0.9; }
      }
      
      @keyframes hexRotate {
        from { transform: rotate(0deg); }
        to { transform: rotate(360deg); }
      }
      
      @keyframes hexRotateReverse {
        from { transform: rotate(0deg); }
        to { transform: rotate(-360deg); }
      }
      
      @keyframes particleFlow {
        0% { transform: translate(0, 0); stroke-dashoffset: 1000; }
        100% { transform: translate(0, 0); stroke-dashoffset: 0; }
      }
      
      @keyframes glow {
        0% { filter: drop-shadow(0 0 3px rgba(48, 102, 190, 0.4)); }
        50% { filter: drop-shadow(0 0 10px rgba(48, 102, 190, 0.7)); }
        100% { filter: drop-shadow(0 0 3px rgba(48, 102, 190, 0.4)); }
      }
      
      @keyframes shimmer {
        0% { stroke-opacity: 0.3; }
        50% { stroke-opacity: 0.8; }
        100% { stroke-opacity: 0.3; }
      }
      
      @keyframes particleGlow {
        0% { r: 3; opacity: 0.6; }
        50% { r: 5; opacity: 0.9; }
        100% { r: 3; opacity: 0.6; }
      }
      
      .float-x {
        animation: floatNodeX 10s ease-in-out infinite;
      }
      
      .float-y {
        animation: floatNodeY 12s ease-in-out infinite;
      }
      
      .float-diag {
        animation: floatNodeDiagonal1 8s ease-in-out infinite;
      }
      
      .pulsing {
        animation: pulse 5s ease-in-out infinite;
      }
      
      .hex-rotate {
        animation: hexRotate 40s linear infinite;
        transform-origin: 400px 200px;
      }
      
      .hex-rotate-reverse {
        animation: hexRotateReverse 30s linear infinite;
        transform-origin: 400px 200px;
      }
      
      .glowing {
        animation: glow 5s ease-in-out infinite;
      }
      
      .shimmer-line {
        animation: shimmer 6s ease-in-out infinite;
      }
      
      .particle-flow {
        stroke-dasharray: 1000;
        stroke-dashoffset: 1000;
        animation: particleFlow 10s linear infinite;
      }
      
      .particle {
        animation: particleGlow 4s ease-in-out infinite;
      }
    </style>
  </defs>
  
  <!-- Hexagonal structure instead of circles -->
  <path d="M400,50 L525,125 L525,275 L400,350 L275,275 L275,125 Z" fill="none" stroke="#3066BE" stroke-width="1" stroke-dasharray="10,10" class="hex-rotate" opacity="0.6" />
  <path d="M400,90 L487,140 L487,240 L400,290 L313,240 L313,140 Z" fill="none" stroke="#4A89DC" stroke-width="1" stroke-dasharray="5,8" class="hex-rotate-reverse" opacity="0.7" />
  
  <!-- Central Knowledge Hub with enhanced pulse -->
  <g class="pulsing">
    <circle cx="400" cy="200" r="70" fill="url(#centralGradient)" stroke="#1E56A0" stroke-width="3" class="glowing" />
    <text x="400" y="205" font-family="Arial, sans-serif" font-size="18" text-anchor="middle" fill="#FFFFFF" font-weight="bold">LEARNIVERSE</text>
  </g>
  
  <!-- Three main skill nodes with floating animations -->
  <g>
    <!-- Coding Node -->
    <g class="float-x" transform="translate(0, 0)">
      <polygon points="250,80 290,100 290,140 250,160 210,140 210,100" fill="url(#nodeGradient)" stroke="#3066BE" stroke-width="2.5"/>
      <text x="250" y="130" font-family="Arial, sans-serif" font-size="14" text-anchor="middle" fill="#1A2A3A" font-weight="bold">Coding</text>
      
      <!-- Code icon -->
      <g transform="translate(230,100)">
        <rect x="0" y="0" width="40" height="25" rx="3" ry="3" fill="none" stroke="#3066BE" stroke-width="1.5"/>
        <text x="5" y="10" font-family="monospace" font-size="8" fill="#3066BE">&lt;/&gt;</text>
        <line x1="5" y1="15" x2="15" y2="15" stroke="#3066BE" stroke-width="1.5"/>
        <line x1="5" y1="20" x2="25" y2="20" stroke="#3066BE" stroke-width="1.5"/>
      </g>
    </g>
    
    <!-- Cooking Node -->
    <g class="float-y" transform="translate(0, 0)">
      <polygon points="550,80 590,100 590,140 550,160 510,140 510,100" fill="url(#nodeGradient)" stroke="#3066BE" stroke-width="2.5"/>
      <text x="550" y="130" font-family="Arial, sans-serif" font-size="14" text-anchor="middle" fill="#1A2A3A" font-weight="bold">Cooking</text>
      
      <!-- Cooking pot icon -->
      <g transform="translate(530,100)">
        <path d="M40,20 C40,10 30,10 25,10 C20,10 10,10 10,20" stroke="#3066BE" stroke-width="2" fill="none"/>
        <rect x="10" y="20" width="30" height="20" rx="3" ry="3" fill="none" stroke="#3066BE" stroke-width="2"/>
        <path d="M15,10 L15,5" stroke="#3066BE" stroke-width="1.5"/>
        <path d="M25,10 L25,5" stroke="#3066BE" stroke-width="1.5"/>
        <path d="M35,10 L35,5" stroke="#3066BE" stroke-width="1.5"/>
      </g>
    </g>
    
    <!-- Photography Node -->
    <g class="float-diag" transform="translate(0, 0)">
      <polygon points="400,320 440,340 440,380 400,400 360,380 360,340" fill="url(#nodeGradient)" stroke="#3066BE" stroke-width="2.5"/>
      <text x="400" y="370" font-family="Arial, sans-serif" font-size="14" text-anchor="middle" fill="#1A2A3A" font-weight="bold">Photography</text>
      
      <!-- Camera icon -->
      <g transform="translate(380,345)">
        <rect x="0" y="0" width="40" height="30" rx="5" ry="5" fill="none" stroke="#3066BE" stroke-width="1.5"/>
        <circle cx="20" cy="15" r="10" fill="none" stroke="#3066BE" stroke-width="1.5"/>
        <circle cx="20" cy="15" r="5" fill="none" stroke="#3066BE" stroke-width="1"/>
        <rect x="30" y="5" width="7" height="5" fill="#3066BE"/>
      </g>
    </g>
  </g>
  
  <!-- Knowledge particles with enhanced glow effect -->
  <g>
    <circle cx="340" cy="140" r="4" fill="#4A89DC" class="particle"/>
    <circle cx="460" cy="140" r="4" fill="#4A89DC" class="particle"/>
    <circle cx="340" cy="260" r="4" fill="#4A89DC" class="particle"/>
    <circle cx="460" cy="260" r="4" fill="#4A89DC" class="particle"/>
    <circle cx="370" cy="170" r="3" fill="#3066BE" class="particle"/>
    <circle cx="430" cy="170" r="3" fill="#3066BE" class="particle"/>
    <circle cx="370" cy="230" r="3" fill="#3066BE" class="particle"/>
    <circle cx="430" cy="230" r="3" fill="#3066BE" class="particle"/>
  </g>
  
  <!-- Floating skill elements -->
  <g class="hex-rotate">
    <!-- Skills at various points around the central hub -->
    <g transform="translate(400, 40)">
      <polygon points="0,-20 17,-10 17,10 0,20 -17,10 -17,-10" fill="url(#nodeGradient)" stroke="#3066BE" stroke-width="1.5"/>
      <text x="0" y="5" font-family="Arial, sans-serif" font-size="9" text-anchor="middle" fill="#1A2A3A">Python</text>
    </g>
    
    <g transform="translate(530, 120)">
      <polygon points="0,-20 17,-10 17,10 0,20 -17,10 -17,-10" fill="url(#nodeGradient)" stroke="#3066BE" stroke-width="1.5"/>
      <text x="0" y="5" font-family="Arial, sans-serif" font-size="9" text-anchor="middle" fill="#1A2A3A">Web</text>
    </g>
    
    <g transform="translate(530, 280)">
      <polygon points="0,-20 17,-10 17,10 0,20 -17,10 -17,-10" fill="url(#nodeGradient)" stroke="#3066BE" stroke-width="1.5"/>
      <text x="0" y="5" font-family="Arial, sans-serif" font-size="9" text-anchor="middle" fill="#1A2A3A">Mobile</text>
    </g>
  </g>
  
  <g class="hex-rotate-reverse">
    <g transform="translate(400, 360)">
      <polygon points="0,-20 17,-10 17,10 0,20 -17,10 -17,-10" fill="url(#nodeGradient)" stroke="#3066BE" stroke-width="1.5"/>
      <text x="0" y="5" font-family="Arial, sans-serif" font-size="9" text-anchor="middle" fill="#1A2A3A">Art</text>
    </g>
    
    <g transform="translate(270, 280)">
      <polygon points="0,-20 17,-10 17,10 0,20 -17,10 -17,-10" fill="url(#nodeGradient)" stroke="#3066BE" stroke-width="1.5"/>
      <text x="0" y="5" font-family="Arial, sans-serif" font-size="9" text-anchor="middle" fill="#1A2A3A">Video</text>
    </g>
    
    <g transform="translate(270, 120)">
      <polygon points="0,-20 17,-10 17,10 0,20 -17,10 -17,-10" fill="url(#nodeGradient)" stroke="#3066BE" stroke-width="1.5"/>
      <text x="0" y="5" font-family="Arial, sans-serif" font-size="9" text-anchor="middle" fill="#1A2A3A">UI/UX</text>
    </g>
  </g>
  
  <!-- Enhanced flowing connection lines -->
  <path d="M330 140 Q 365 170, 390 190" stroke="#2656A8" stroke-width="2.5" stroke-opacity="0.6" fill="none" class="particle-flow shimmer-line"/>
  <path d="M470 140 Q 435 170, 410 190" stroke="#2656A8" stroke-width="2.5" stroke-opacity="0.6" fill="none" class="particle-flow shimmer-line"/>
  <path d="M380 290 Q 390 250, 390 220" stroke="#2656A8" stroke-width="2.5" stroke-opacity="0.6" fill="none" class="particle-flow shimmer-line"/>
  <path d="M420 290 Q 410 250, 410 220" stroke="#2656A8" stroke-width="2.5" stroke-opacity="0.6" fill="none" class="particle-flow shimmer-line"/>
  
  <!-- Network graph connections -->
  <path d="M310 110 Q 350 130, 340 180" stroke="#4A89DC" stroke-width="1" stroke-opacity="0.4" fill="none" class="shimmer-line"/>
  <path d="M490 110 Q 450 130, 460 180" stroke="#4A89DC" stroke-width="1" stroke-opacity="0.4" fill="none" class="shimmer-line"/>
  <path d="M380 330 Q 360 290, 380 230" stroke="#4A89DC" stroke-width="1" stroke-opacity="0.4" fill="none" class="shimmer-line"/>
  <path d="M420 330 Q 440 290, 420 230" stroke="#4A89DC" stroke-width="1" stroke-opacity="0.4" fill="none" class="shimmer-line"/>
</svg>